<?xml version="1.0" encoding="UTF-8" standalone="no"?>
<!-- Generator: Adobe Illustrator 24.3.0, SVG Export Plug-In . SVG Version: 6.00 Build 0)  -->

<svg
   version="1.1"
   id="Layer_1"
   x="0px"
   y="0px"
   viewBox="0 0 1024.0001 1024"
   xml:space="preserve"
   sodipodi:docname="artivact_logo.svg"
   width="1024"
   height="1024"
   inkscape:version="1.3.1 (91b66b0783, 2023-11-16)"
   xmlns:inkscape="http://www.inkscape.org/namespaces/inkscape"
   xmlns:sodipodi="http://sodipodi.sourceforge.net/DTD/sodipodi-0.dtd"
   xmlns="http://www.w3.org/2000/svg"
   xmlns:svg="http://www.w3.org/2000/svg"><defs
   id="defs16" /><sodipodi:namedview
   id="namedview16"
   pagecolor="#ffffff"
   bordercolor="#000000"
   borderopacity="0.25"
   inkscape:showpageshadow="2"
   inkscape:pageopacity="0.0"
   inkscape:pagecheckerboard="0"
   inkscape:deskcolor="#d1d1d1"
   inkscape:zoom="0.53394631"
   inkscape:cx="584.32842"
   inkscape:cy="603.99331"
   inkscape:window-width="2560"
   inkscape:window-height="1369"
   inkscape:window-x="2552"
   inkscape:window-y="-8"
   inkscape:window-maximized="1"
   inkscape:current-layer="Layer_1" />
<path
   d="m 347.95325,359.05614 h -208.78 c -16.89,0 -30.58,13.69 -30.58,30.58 v 208.78 c 0,16.89 13.69,30.58 30.58,30.58 h 208.78 c 16.89,0 30.58,-13.69 30.58,-30.58 v -208.78 c 0,-16.89 -13.69,-30.58 -30.58,-30.58 z m -12.51,240.92 c -0.9,0.33 -1.83,0.48 -2.74,0.48 v 0.02 h -35.66 c -3.71,0 -6.83,-2.5 -7.77,-5.91 l -24.3,-67.08 c -1.51,-4.17 0.64,-8.79 4.82,-10.3 4.17,-1.51 8.79,0.64 10.3,4.82 l 22.59,62.34 h 18.55 l -29.81,-82.28 h -60.05 l -33.51,92.5 c -0.94,3.41 -4.06,5.91 -7.77,5.91 h -35.66 v -0.02 c -0.91,0 -1.84,-0.16 -2.74,-0.48 -4.17,-1.51 -6.33,-6.12 -4.82,-10.3 23.77,-65.61 47.53,-131.22 71.31,-196.82 0.79,-2.16 2.49,-3.97 4.82,-4.82 4.17,-1.51 8.79,0.64 10.3,4.82 l 26.55,73.28 c 1.51,4.17 -0.64,8.79 -4.82,10.3 -4.17,1.51 -8.79,-0.64 -10.3,-4.82 l -18.99,-52.42 -59.84,165.15 h 18.55 l 33.73,-93.09 c 1.19,-3.27 4.27,-5.3 7.56,-5.3 v -0.01 h 71.31 c 3.71,0 6.83,2.5 7.77,5.91 l 35.44,97.82 c 1.51,4.18 -0.64,8.79 -4.82,10.3 z"
   id="path1"
   inkscape:export-filename="..\artivact_logo.svg"
   inkscape:export-xdpi="96"
   inkscape:export-ydpi="96" />
<g
   id="g16">
	<path
   d="m 422.69325,535.52614 c -2.5,0 -4.41,-1.07 -5.75,-3.21 -1.34,-2.14 -1.47,-4.42 -0.4,-6.82 l 37.59,-89.76 c 1.34,-3.12 3.52,-4.68 6.55,-4.68 3.21,0 5.4,1.56 6.56,4.68 l 37.72,90.03 c 0.98,2.5 0.82,4.75 -0.47,6.76 -1.29,2.01 -3.23,3.01 -5.82,3.01 -1.34,0 -2.61,-0.38 -3.81,-1.14 -1.2,-0.76 -2.07,-1.81 -2.61,-3.14 l -33.18,-82.4 h 3.75 l -33.71,82.4 c -0.62,1.43 -1.54,2.5 -2.74,3.21 -1.2,0.71 -2.43,1.06 -3.68,1.06 z m 7.09,-23 5.35,-11.5 h 52.44 l 5.35,11.5 z"
   id="path2" />
	<path
   d="m 526.23325,535.52614 c -2.14,0 -3.79,-0.56 -4.95,-1.67 -1.16,-1.11 -1.74,-2.79 -1.74,-5.02 v -59.8 c 0,-2.14 0.58,-3.79 1.74,-4.95 1.16,-1.16 2.81,-1.74 4.95,-1.74 2.23,0 3.9,0.56 5.02,1.67 1.11,1.12 1.67,2.79 1.67,5.02 v 59.8 c 0,2.14 -0.56,3.79 -1.67,4.95 -1.12,1.17 -2.79,1.74 -5.02,1.74 z m -0.13,-45.75 c 0,-5.35 1.31,-10.14 3.95,-14.38 2.63,-4.23 6.17,-7.6 10.63,-10.1 4.46,-2.5 9.36,-3.75 14.72,-3.75 5.36,0 9.34,0.87 11.97,2.61 2.63,1.74 3.63,3.81 3.01,6.22 -0.27,1.25 -0.78,2.21 -1.54,2.88 -0.76,0.67 -1.63,1.09 -2.61,1.27 -0.98,0.18 -2.05,0.13 -3.21,-0.13 -5.71,-1.16 -10.84,-1.25 -15.38,-0.27 -4.55,0.98 -8.14,2.81 -10.77,5.48 -2.63,2.68 -3.95,6.07 -3.95,10.17 z"
   id="path3" />
	<path
   d="m 581.48325,476.53614 c -1.87,0 -3.39,-0.54 -4.55,-1.6 -1.16,-1.07 -1.74,-2.41 -1.74,-4.01 0,-1.78 0.58,-3.21 1.74,-4.28 1.16,-1.07 2.68,-1.61 4.55,-1.61 h 30.9 c 1.87,0 3.39,0.54 4.55,1.61 1.16,1.07 1.74,2.5 1.74,4.28 0,1.6 -0.58,2.94 -1.74,4.01 -1.16,1.07 -2.68,1.6 -4.55,1.6 z m 29.7,58.99 c -4.46,0 -8.47,-1.14 -12.04,-3.41 -3.57,-2.27 -6.38,-5.37 -8.43,-9.3 -2.05,-3.92 -3.08,-8.34 -3.08,-13.24 v -63.81 c 0,-1.96 0.62,-3.57 1.87,-4.82 1.25,-1.25 2.85,-1.87 4.82,-1.87 1.96,0 3.57,0.62 4.82,1.87 1.25,1.25 1.87,2.86 1.87,4.82 v 63.81 c 0,3.57 0.98,6.55 2.94,8.96 1.96,2.41 4.37,3.61 7.22,3.61 h 4.55 c 1.61,0 2.96,0.62 4.08,1.87 1.11,1.25 1.67,2.85 1.67,4.82 0,1.96 -0.74,3.57 -2.21,4.82 -1.47,1.25 -3.37,1.87 -5.69,1.87 z"
   id="path4" />
	<path
   d="m 646.36325,450.44614 c -2.41,0 -4.48,-0.87 -6.22,-2.61 -1.74,-1.74 -2.61,-3.81 -2.61,-6.22 0,-2.41 0.87,-4.48 2.61,-6.22 1.74,-1.74 3.81,-2.61 6.22,-2.61 2.41,0 4.48,0.87 6.22,2.61 1.74,1.74 2.61,3.81 2.61,6.22 0,2.41 -0.87,4.48 -2.61,6.22 -1.74,1.75 -3.81,2.61 -6.22,2.61 z m 0,85.08 c -1.96,0 -3.59,-0.65 -4.88,-1.94 -1.29,-1.29 -1.94,-2.92 -1.94,-4.88 v -59.53 c 0,-2.05 0.65,-3.7 1.94,-4.95 1.29,-1.25 2.92,-1.87 4.88,-1.87 2.05,0 3.7,0.62 4.95,1.87 1.25,1.25 1.87,2.9 1.87,4.95 v 59.53 c 0,1.96 -0.62,3.59 -1.87,4.88 -1.25,1.3 -2.9,1.94 -4.95,1.94 z"
   id="path5" />
	<path
   d="m 703.35325,535.39614 c -2.77,0 -4.91,-1.47 -6.42,-4.41 l -28.36,-59.8 c -0.71,-1.52 -0.78,-3.01 -0.2,-4.48 0.58,-1.47 1.72,-2.61 3.41,-3.41 1.52,-0.8 3.05,-0.94 4.62,-0.4 1.56,0.54 2.74,1.56 3.54,3.08 l 26.49,57.12 h -6.42 l 26.22,-57.12 c 0.8,-1.52 2.03,-2.54 3.68,-3.08 1.65,-0.53 3.32,-0.4 5.02,0.4 1.6,0.71 2.68,1.83 3.21,3.34 0.54,1.52 0.45,3.03 -0.27,4.55 l -28.36,59.8 c -1.35,2.94 -3.4,4.41 -6.16,4.41 z"
   id="path6" />
	<path
   d="m 779.73325,536.06614 c -6.51,0 -12.35,-1.63 -17.52,-4.88 -5.17,-3.25 -9.25,-7.67 -12.24,-13.24 -2.99,-5.57 -4.48,-11.88 -4.48,-18.93 0,-7.04 1.63,-13.38 4.88,-19 3.25,-5.62 7.67,-10.05 13.24,-13.31 5.57,-3.25 11.84,-4.88 18.8,-4.88 6.96,0 13.2,1.63 18.73,4.88 5.53,3.26 9.92,7.69 13.18,13.31 3.25,5.62 4.88,11.95 4.88,19 h -5.22 c 0,7.05 -1.49,13.36 -4.48,18.93 -2.99,5.57 -7.07,9.99 -12.24,13.24 -5.18,3.25 -11.02,4.88 -17.53,4.88 z m 2.68,-12.04 c 4.55,0 8.61,-1.09 12.17,-3.28 3.57,-2.18 6.38,-5.17 8.43,-8.96 2.05,-3.79 3.08,-8.05 3.08,-12.78 0,-4.82 -1.03,-9.12 -3.08,-12.91 -2.05,-3.79 -4.86,-6.78 -8.43,-8.96 -3.57,-2.18 -7.63,-3.28 -12.17,-3.28 -4.46,0 -8.49,1.09 -12.11,3.28 -3.61,2.19 -6.47,5.17 -8.56,8.96 -2.1,3.79 -3.14,8.09 -3.14,12.91 0,4.73 1.05,8.99 3.14,12.78 2.09,3.79 4.95,6.78 8.56,8.96 3.61,2.19 7.65,3.28 12.11,3.28 z m 29.96,11.64 c -1.96,0 -3.59,-0.65 -4.88,-1.94 -1.29,-1.29 -1.94,-2.92 -1.94,-4.88 v -20.47 l 2.54,-14.18 11.1,4.82 v 29.83 c 0,1.96 -0.65,3.59 -1.94,4.88 -1.29,1.29 -2.92,1.94 -4.88,1.94 z"
   id="path7" />
	<path
   d="m 872.70325,536.06614 c -7.14,0 -13.49,-1.63 -19.06,-4.88 -5.58,-3.25 -9.95,-7.67 -13.11,-13.24 -3.17,-5.57 -4.75,-11.88 -4.75,-18.93 0,-7.22 1.56,-13.64 4.68,-19.26 3.12,-5.62 7.4,-10.01 12.84,-13.18 5.44,-3.16 11.68,-4.75 18.73,-4.75 5.26,0 10.08,1 14.45,3.01 4.37,2.01 8.29,5.02 11.77,9.03 1.25,1.43 1.69,2.9 1.34,4.41 -0.36,1.52 -1.34,2.85 -2.94,4.01 -1.25,0.89 -2.63,1.18 -4.15,0.87 -1.52,-0.31 -2.9,-1.09 -4.15,-2.34 -4.37,-4.64 -9.81,-6.96 -16.32,-6.96 -4.55,0 -8.56,1.05 -12.04,3.14 -3.48,2.1 -6.2,5.02 -8.16,8.76 -1.96,3.75 -2.94,8.16 -2.94,13.24 0,4.82 1,9.1 3.01,12.84 2.01,3.74 4.79,6.71 8.36,8.9 3.57,2.19 7.71,3.28 12.44,3.28 3.12,0 5.86,-0.38 8.23,-1.14 2.36,-0.76 4.53,-1.94 6.49,-3.54 1.43,-1.16 2.9,-1.81 4.42,-1.94 1.52,-0.13 2.85,0.29 4.01,1.27 1.52,1.25 2.36,2.65 2.54,4.21 0.18,1.56 -0.36,2.97 -1.61,4.21 -6.42,5.99 -14.44,8.98 -24.08,8.98 z"
   id="path8" />
	<path
   d="m 916.85325,476.53614 c -1.87,0 -3.39,-0.54 -4.55,-1.6 -1.16,-1.07 -1.74,-2.41 -1.74,-4.01 0,-1.78 0.58,-3.21 1.74,-4.28 1.16,-1.07 2.67,-1.61 4.55,-1.61 h 30.9 c 1.87,0 3.39,0.54 4.55,1.61 1.16,1.07 1.74,2.5 1.74,4.28 0,1.6 -0.58,2.94 -1.74,4.01 -1.16,1.07 -2.68,1.6 -4.55,1.6 z m 29.7,58.99 c -4.46,0 -8.47,-1.14 -12.04,-3.41 -3.57,-2.27 -6.38,-5.37 -8.43,-9.3 -2.05,-3.92 -3.08,-8.34 -3.08,-13.24 v -63.81 c 0,-1.96 0.62,-3.57 1.87,-4.82 1.25,-1.25 2.85,-1.87 4.82,-1.87 1.96,0 3.57,0.62 4.82,1.87 1.25,1.25 1.87,2.86 1.87,4.82 v 63.81 c 0,3.57 0.98,6.55 2.94,8.96 1.96,2.41 4.37,3.61 7.22,3.61 h 4.55 c 1.61,0 2.96,0.62 4.08,1.87 1.11,1.25 1.67,2.85 1.67,4.82 0,1.96 -0.74,3.57 -2.21,4.82 -1.47,1.25 -3.37,1.87 -5.69,1.87 z"
   id="path9" />
	
	
	
	
	
	
	
</g>
</svg>
