<?xml version="1.0" encoding="UTF-8"?>
<svg id="Layer_2" xmlns="http://www.w3.org/2000/svg" viewBox="0 0 84.09 153.31">
    <defs>
        <style>
            .cls-1 {
            fill: #fff;
            stroke: #000;
            stroke-linecap: round;
            stroke-miterlimit: 10;
            stroke-width: 3px;
            }
        </style>
    </defs>
    <g id="Layer_2-2" data-name="Layer_2">
        <g>
            <g>
                <g>
                    <path class="cls-1"
                          d="M16.61,140.96c0,.82.66,1.61,1.86,2.33,3.78,2.27,12.91,3.86,23.57,3.86s19.79-1.6,23.57-3.86c1.2-.72,1.86-1.5,1.86-2.33,0-3.42-11.39-6.19-25.44-6.19s-25.44,2.77-25.44,6.19Z"/>
                    <path class="cls-1"
                          d="M16.76,141.65c-.04-.08-.16-.05-.16.04v3.93c0,3.42,11.39,6.19,25.44,6.19,14.05,0,25.44-2.77,25.44-6.19v-4.66c0,.82-.66,1.61-1.86,2.33-3.78,2.27-12.91,3.86-23.57,3.86s-19.79-1.6-23.57-3.86c-.86-.51-1.45-1.06-1.71-1.64Z"/>
                </g>
                <g>
                    <path class="cls-1"
                          d="M1.5,85.74v.91s3.34,10.38,14.93,17.66c2.7,1.7,4.3,4.7,4.3,7.89v5.02c0,4.47,2.31,8.4,5.79,10.67,1.99,1.3,4.37,2.05,6.93,2.05h17.45c2.94,0,5.64-1,7.79-2.67,3-2.33,4.93-5.97,4.93-10.05v-5.2c0-3.17,1.58-6.15,4.25-7.86.04-.03.08-.05.11-.07,7.82-5.02,11.8-11.44,13.51-14.92.3-.61.53-1.13.7-1.54.25-.6.38-1.24.38-1.89h0c0-4.97-4.03-9.01-9.01-9.01h-12.49c-4.64,0-8.47-3.51-8.95-8.03-.03-.32-.05-.65-.05-.98v-9.05s-4.61-.52-4.61-.52l-4.29-.49v-.26s-1.15.13-1.15.13l-1.14-.13v.26l-8.9,1.01v9.05c0,2.01-.66,3.87-1.78,5.37-.9,1.21-2.09,2.19-3.48,2.82-1.14.52-2.41.81-3.75.81h-12.49c-4.97,0-9.01,4.03-9.01,9.01Z"/>
                    <g>
                        <path class="cls-1"
                              d="M37.94,116.75c-6.14,1.25-13.66-1.86-16.18-7.6-5.06-11.54-9.48-25.45-10.98-32.52-.33-1.54.83-3,2.41-3.04s2.94-.03,4.16,0c2.3.04,4.4,1.29,5.53,3.29"/>
                        <path class="cls-1"
                              d="M28.41,75.92s22.95,20.23,39.8,28.27c2.37,1.13,2.53,4.45.3,5.84-6.45,4.05-11.78,6.01-19.66,7.56-1.83.36-3.8.7-5.96,1.04-2.34.37-4.7-.65-5.96-2.65-9.96-15.74-14.59-36.09-14.59-40.07h6.07Z"/>
                    </g>
                    <g>
                        <polygon class="cls-1"
                                 points="22.66 23.08 22.66 55.06 32.61 61.35 43.71 62.15 50.4 55.06 61.51 25.36 44.38 11.92 29.26 14.79 22.66 23.08"/>
                        <path class="cls-1"
                              d="M22.29,23.67c.28,1.94-2,3.23-.08,3.62.7.14,1.4.13,2.05-.01.61-.14,1.12-.57,1.38-1.14h0c.69-1.47,1.47-2.74,2.32-3.83,8.21-10.54,22.89-4.7,21.04,1.3-1.74,5.61,5.13,9.94,7.26,11.12.35.2.51.61.39.99l-1.96,5.96,1.03,5.87-1.35-.4h0c-.22,4.41,3.31,8.04,7.68,7.99,3.93-.05,7.27-3.26,7.48-7.18.04-.72-.03-1.42-.18-2.09-.17-.74.15-1.51.76-1.96,1.54-1.13,2.54-2.96,2.54-5.02,0-2.64-2.82-.53-4.57-3.52-1.27-2.17-.26-4.98,2.03-6.03,1.99-.91,3.9-1.61,3.9-3.98,0-2.98-1.71-5.55-4.2-6.79-.99-.49-1.45-1.64-1.11-2.69s.45-2.3.22-3.56c-.53-2.84-2.84-5.13-5.69-5.63-2.22-.39-4.3.26-5.84,1.54-.42.35-1.04.21-1.27-.28-.94-1.98-1.67-4.73-5.95-5.95-1.75-.5-3.46.76-4.63,1.97-.64.66-1.74.57-2.25-.2-.91-1.36-2.46-2.26-4.21-2.26s-3.24.86-4.16,2.17c-.45.64-1.19,1.01-1.97.96-.28-.02-.56-.02-.85,0-2.52.19-4.67,2.12-5.1,4.61-.07.39-.1.78-.09,1.16.02.93-.8,1.56-1.72,1.45-.51-.06-1.06-.03-1.61.11-1.4.37-3.21,2.24-3.71,4.54-1.1,5.11,2.21,5.68,2.42,7.17Z"/>
                        <path class="cls-1"
                              d="M54.28,36.81c-1.22,5.93-4.78,19.35-11.65,17.21,0,0-5.47-3.25-11.25-3.53,0,0-1.54.03-4.2.78-1.69.48-3.44-.56-3.88-2.26l-1.08-4.15s-7.23,3.38-3.54,11.58c-2.57,2.73,1.93,6.91,1.93,6.91,0,0-2.09,9.97,7.07,7.07,4.02,6.75,9.16.53,9.16.53,0,0,7.56,5.9,12.22-2.3,8.04,1.77,5.72-7.99,5.72-7.99,0,0,6.6-2.78,1.4-9.86,5.41-4.18-.37-7.6-.37-7.6,0,0,2.17-2.94,1.97-7.56-1.23-1.08-3.17-.45-3.5,1.16Z"/>
                    </g>
                </g>
                <path class="cls-1"
                      d="M27.64,128.54c-.51-.26-1.12.1-1.12.68v9.74c0,1.83,7.21,3.31,16.09,3.31s16.09-1.48,16.09-3.31v-10.22c0-.61-.66-.96-1.18-.65-1.93,1.17-4.19,1.85-6.61,1.85h-17.45c-2.1,0-4.07-.51-5.82-1.4Z"/>
            </g>
            <g>
                <rect class="cls-1" x="16.48" y="23.56" width="42.09" height="20.03" rx="4.59" ry="4.59"/>
                <rect class="cls-1" x="11.61" y="23.56" width="42.09" height="20.03" rx="4.59" ry="4.59"/>
                <rect class="cls-1" x="17.66" y="28.31" width="28.29" height="4.74" rx="2.37" ry="2.37"/>
            </g>
            <path class="cls-1"
                  d="M58.57,29.93h10.32c1.02,0,1.85.83,1.85,1.85v2.98c0,.91-.66,1.68-1.55,1.83l-10.62,1.75v-8.4Z"/>
        </g>
    </g>
</svg>