<?xml version="1.0" encoding="UTF-8"?>
<svg id="Layer_2" xmlns="http://www.w3.org/2000/svg" viewBox="0 0 93.14 181.63">
    <defs>
        <style>
            .cls-1 {
            fill: #fff;
            stroke: #000;
            stroke-linecap: round;
            stroke-miterlimit: 10;
            stroke-width: 3px;
            }
        </style>
    </defs>
    <g id="Layer_2-2" data-name="Layer_2">
        <g>
            <g>
                <rect class="cls-1" x="1.5" y="157.52" width="90.14" height="14.17" rx=".95" ry=".95"/>
                <path class="cls-1"
                      d="M8.04,134.31l-6.52,23.14s.01.06.05.06h90.01s.06-.03.05-.06l-6.52-23.14s-.03-.04-.05-.04H8.09s-.04.01-.05.04Z"/>
            </g>
            <g>
                <g>
                    <path class="cls-1"
                          d="M21.13,140.96c0,.82.66,1.61,1.86,2.33,3.78,2.27,12.91,3.86,23.57,3.86s19.79-1.6,23.57-3.86c1.2-.72,1.86-1.5,1.86-2.33,0-3.42-11.39-6.19-25.44-6.19s-25.44,2.77-25.44,6.19Z"/>
                    <path class="cls-1"
                          d="M21.25,141.56c-.03-.06-.12-.05-.12.02v4.04c0,3.42,11.39,6.19,25.44,6.19,14.05,0,25.44-2.77,25.44-6.19v-4.66c0,.82-.66,1.61-1.86,2.33-3.78,2.27-12.91,3.86-23.57,3.86s-19.79-1.6-23.57-3.86c-.91-.54-1.51-1.12-1.75-1.73Z"/>
                </g>
                <g>
                    <path class="cls-1"
                          d="M6.03,85.74v.91s3.34,10.38,14.93,17.66c2.7,1.7,4.3,4.7,4.3,7.89v5.02c0,4.47,2.31,8.4,5.79,10.67,1.99,1.3,4.37,2.05,6.93,2.05h17.45c2.94,0,5.64-1,7.79-2.67,3-2.33,4.93-5.97,4.93-10.05v-5.2c0-3.17,1.58-6.15,4.25-7.86.04-.03.08-.05.11-.07,7.73-4.96,11.7-11.29,13.45-14.79.34-.68.59-1.25.77-1.69.25-.59.37-1.23.37-1.87h0c0-4.97-4.03-9.01-9.01-9.01h-12.49c-4.64,0-8.47-3.51-8.95-8.03-.03-.32-.05-.65-.05-.98v-9.05s-4.61-.52-4.61-.52l-4.29-.49v-.26s-1.15.13-1.15.13l-1.14-.13v.26l-8.9,1.01v9.05c0,2.01-.66,3.87-1.78,5.37-.9,1.21-2.09,2.19-3.48,2.82-1.14.52-2.41.81-3.75.81h-12.49c-4.97,0-9.01,4.03-9.01,9.01Z"/>
                    <g>
                        <path class="cls-1"
                              d="M41.07,117.04c-6.13,1.13-12.25-2.09-14.75-7.8-5.07-11.56-9.52-25.53-11.01-32.62-.32-1.54.84-2.99,2.41-3.03s2.94-.03,4.17,0c2.3.04,4.4,1.29,5.53,3.29"/>
                        <path class="cls-1"
                              d="M32.94,75.92s22.94,20.22,39.79,28.26c2.38,1.14,2.57,4.43.34,5.84-7.96,5.01-14.21,6.82-25.65,8.62-2.38.38-4.74-.73-6.03-2.77-9.91-15.72-14.51-35.98-14.51-39.95h6.07Z"/>
                    </g>
                    <g>
                        <polygon class="cls-1"
                                 points="27.18 23.08 27.18 55.06 37.13 61.35 48.24 62.15 54.93 55.06 66.03 25.36 48.91 11.92 33.79 14.79 27.18 23.08"/>
                        <path class="cls-1"
                              d="M23.69,20.09c-.57.92-.84,2.04-.67,3.24.28,1.94,1.79,3.56,3.71,3.95.7.14,1.4.13,2.05-.01.61-.14,1.12-.57,1.38-1.14h0c.69-1.47,1.47-2.74,2.32-3.83,8.21-10.54,22.89-4.7,21.04,1.3-1.74,5.61,5.13,9.94,7.26,11.12.35.2.51.61.39.99l-1.96,5.96,1.03,5.87-1.35-.4h0c-.22,4.41,3.31,8.04,7.68,7.99,3.93-.05,7.27-3.26,7.48-7.18.04-.72-.03-1.42-.18-2.09-.17-.74.15-1.51.76-1.96,1.54-1.13,2.54-2.96,2.54-5.02,0-2.12-1.05-3.99-2.67-5.11-.64-.45-.62-1.38.07-1.75,2.36-1.29,3.96-3.79,3.96-6.66s-1.71-5.55-4.2-6.79c-.99-.49-1.45-1.64-1.11-2.69s.45-2.3.22-3.56c-.53-2.84-2.84-5.13-5.69-5.63-2.22-.39-4.3.26-5.84,1.54-.42.35-1.04.21-1.27-.28-.94-1.98-1.67-4.73-5.95-5.95-1.75-.5-3.46.76-4.63,1.97-.64.66-1.74.57-2.25-.2-.91-1.36-2.46-2.26-4.21-2.26s-3.24.86-4.16,2.17c-.45.64-1.19,1.01-1.97.96-.28-.02-.56-.02-.85,0-2.52.19-4.67,2.12-5.1,4.61-.07.39-.1.78-.09,1.16.02.93-.8,1.56-1.72,1.45-.51-.06-1.06-.03-1.61.11-1.4.37-2.52,1.5-2.86,2.9-.08.31-.12.63-.13.93-.04,1.53-.61,3-1.42,4.3Z"/>
                        <path class="cls-1"
                              d="M58.81,36.81c-1.22,5.93-4.78,19.35-11.65,17.21,0,0-5.47-3.25-11.25-3.53,0,0-1.53.03-4.19.77-1.69.47-3.45-.53-3.89-2.23l-1.09-4.17s-7.23,3.38-3.54,11.58c-2.57,2.73,1.93,6.91,1.93,6.91,0,0-2.09,9.97,7.07,7.07,4.02,6.75,9.16.53,9.16.53,0,0,7.56,5.9,12.22-2.3,8.04,1.77,5.72-7.99,5.72-7.99,0,0,6.6-2.78,1.4-9.86,5.41-4.18,1.99-6.11,1.99-6.11,0,0,3.33-5.77-.39-9.05-1.23-1.08-3.17-.45-3.5,1.16Z"/>
                    </g>
                </g>
                <path class="cls-1"
                      d="M31.68,128.28c-.28-.16-.63.03-.63.35v10.33c0,1.83,7.21,3.31,16.09,3.31s16.09-1.48,16.09-3.31v-10.86c0-.34-.38-.53-.66-.34-2.03,1.38-4.48,2.19-7.13,2.19h-17.45c-2.3,0-4.45-.61-6.3-1.67Z"/>
            </g>
            <rect class="cls-1" x="26.87" y="163.24" width="43.69" height="16.9"/>
            <g>
                <line class="cls-1" x1="32.48" y1="169.01" x2="64.95" y2="169.01"/>
                <line class="cls-1" x1="32.48" y1="174.36" x2="54.95" y2="174.36"/>
            </g>
        </g>
    </g>
</svg>