<?xml version="1.0" encoding="UTF-8"?>
<svg id="Layer_2" xmlns="http://www.w3.org/2000/svg" viewBox="0 0 104.6 198.54">
    <defs>
        <style>
            .cls-1 {
            fill: #fff;
            }

            .cls-1, .cls-2 {
            stroke: #000;
            stroke-linecap: round;
            stroke-miterlimit: 10;
            stroke-width: 3px;
            }

            .cls-2 {
            fill: none;
            }
        </style>
    </defs>
    <g id="Layer_2-2" data-name="Layer_2">
        <g>
            <g>
                <g>
                    <path class="cls-1"
                          d="M1.5,175.38c0,1.64,1.32,3.21,3.72,4.65,7.55,4.53,25.79,7.71,47.08,7.71s39.52-3.19,47.08-7.71c2.4-1.43,3.72-3,3.72-4.65,0-6.83-22.74-12.37-50.8-12.37S1.5,168.56,1.5,175.38Z"/>
                    <path class="cls-1"
                          d="M1.5,175.38v9.3c0,6.83,22.74,12.36,50.8,12.36,28.06,0,50.8-5.53,50.8-12.36v-9.3c0,1.64-1.32,3.21-3.72,4.65-7.55,4.53-25.79,7.71-47.08,7.71s-39.52-3.19-47.08-7.71c-2.4-1.43-3.72-3-3.72-4.65Z"/>
                </g>
                <g>
                    <g>
                        <path class="cls-1"
                              d="M26.86,169.7c0,.82.66,1.61,1.86,2.33,3.78,2.27,12.91,3.86,23.57,3.86s19.79-1.6,23.57-3.86c1.2-.72,1.86-1.5,1.86-2.33,0-3.42-11.39-6.19-25.44-6.19s-25.44,2.77-25.44,6.19Z"/>
                        <path class="cls-1"
                              d="M27.11,170.57c-.07-.12-.25-.08-.25.06v3.73c0,3.42,11.39,6.19,25.44,6.19,14.05,0,25.44-2.77,25.44-6.19v-4.66c0,.82-.66,1.61-1.86,2.33-3.78,2.27-12.91,3.86-23.57,3.86s-19.79-1.6-23.57-3.86c-.77-.46-1.32-.95-1.61-1.46Z"/>
                    </g>
                    <g>
                        <path class="cls-1"
                              d="M11.76,114.48v.91s3.34,10.38,14.93,17.66c2.7,1.7,4.3,4.7,4.3,7.89v5.02c0,4.47,2.31,8.4,5.79,10.67,1.99,1.3,4.37,2.05,6.93,2.05h17.45c2.94,0,5.64-1,7.79-2.67,3-2.33,4.93-5.97,4.93-10.05v-5.2c0-3.17,1.58-6.15,4.25-7.86.04-.03.08-.05.11-.07,9-5.78,12.91-13.4,14.13-16.28.03-.06.05-.12.08-.18.25-.6.37-1.24.37-1.89h0c0-4.97-4.03-9.01-9.01-9.01h-12.49c-4.64,0-8.47-3.51-8.95-8.03-.03-.32-.05-.65-.05-.98v-9.05s-4.61-.52-4.61-.52l-4.29-.49v-.26s-1.15.13-1.15.13l-1.14-.13v.26l-8.9,1.01v9.05c0,2.01-.66,3.87-1.78,5.37-.9,1.21-2.09,2.19-3.48,2.82-1.14.52-2.41.81-3.75.81h-12.49c-4.97,0-9.01,4.03-9.01,9.01Z"/>
                        <g>
                            <path class="cls-1"
                                  d="M46.8,145.78c-6.13,1.13-12.25-2.09-14.75-7.8-5.07-11.56-9.52-25.53-11.01-32.62-.32-1.54.84-2.99,2.41-3.03s2.94-.03,4.17,0c2.3.04,4.4,1.29,5.53,3.29"/>
                            <path class="cls-1"
                                  d="M38.67,104.66s22.94,20.22,39.79,28.26c2.38,1.14,2.57,4.43.34,5.84-7.96,5.01-14.21,6.82-25.65,8.62-2.38.38-4.74-.73-6.03-2.77-9.91-15.72-14.51-35.98-14.51-39.95h6.07Z"/>
                        </g>
                        <g>
                            <polygon class="cls-1"
                                     points="32.92 51.83 32.92 83.8 42.86 90.09 53.97 90.89 60.66 83.8 71.76 54.1 54.64 40.66 39.52 43.53 32.92 51.83"/>
                            <path class="cls-1"
                                  d="M29.88,48.22c-.88,1-1.34,2.37-1.13,3.86.28,1.94,1.79,3.56,3.71,3.95.7.14,1.4.13,2.05-.01.61-.14,1.12-.57,1.38-1.14h0c.69-1.47,1.47-2.74,2.32-3.83,8.21-10.54,22.89-4.7,21.04,1.3-1.74,5.61,5.13,9.94,7.26,11.12.35.2.51.61.39.99l-1.96,5.96,1.03,5.87-1.35-.4h0c-.22,4.41,3.31,8.04,7.68,7.99,3.93-.05,7.27-3.26,7.48-7.18.04-.72-.03-1.42-.18-2.09-.17-.74.15-1.51.76-1.96,1.54-1.13,2.54-2.96,2.54-5.02,0-2.12-1.05-3.99-2.67-5.11-.64-.45-.62-1.38.07-1.75,2.36-1.29,3.96-3.79,3.96-6.66,0-2.98-1.71-5.55-4.2-6.79-.99-.49-1.45-1.64-1.11-2.69s.45-2.3.22-3.56c-.53-2.84-2.84-5.13-5.69-5.63-2.22-.39-4.3.26-5.84,1.54-.42.35-1.04.21-1.27-.28-.94-1.98-1.67-4.73-5.95-5.95-1.75-.5-3.46.76-4.63,1.97-.64.66-1.74.57-2.25-.2-.91-1.36-2.46-2.26-4.21-2.26s-3.24.86-4.16,2.17c-.45.64-1.19,1.01-1.97.96-.28-.02-.56-.02-.85,0-2.52.19-4.67,2.12-5.1,4.61-.07.39-.1.78-.09,1.16.02.93-.8,1.56-1.72,1.45-.51-.06-1.06-.03-1.61.11-1.4.37-2.52,1.5-2.86,2.9-.13.55-.16,1.08-.09,1.59.15,1.11-.26,2.18-1,3.02Z"/>
                            <path class="cls-1"
                                  d="M64.54,65.55c-1.22,5.93-4.78,19.35-11.65,17.21,0,0-5.47-3.25-11.25-3.53,0,0-1.53.03-4.19.77-1.69.47-3.45-.53-3.89-2.23l-1.09-4.17s-7.23,3.38-3.54,11.58c-2.57,2.73,1.93,6.91,1.93,6.91,0,0-2.09,9.97,7.07,7.07,4.02,6.75,9.16.53,9.16.53,0,0,7.56,5.9,12.22-2.3,8.04,1.77,5.72-7.99,5.72-7.99,0,0,6.6-2.78,1.4-9.86,5.41-4.18,1.99-6.11,1.99-6.11,0,0,3.33-5.77-.39-9.05-1.23-1.08-3.17-.45-3.5,1.16Z"/>
                        </g>
                    </g>
                    <path class="cls-1"
                          d="M37.24,156.92c-.2-.12-.46.02-.46.25v10.53c0,1.83,7.21,3.31,16.09,3.31s16.09-1.48,16.09-3.31v-11.08c0-.25-.28-.39-.48-.24-2.07,1.45-4.59,2.31-7.31,2.31h-17.45c-2.37,0-4.58-.64-6.47-1.77Z"/>
                </g>
                <path class="cls-2" d="M1.5,175.38V52.3C1.5,24.24,24.24,1.5,52.3,1.5s50.8,22.74,50.8,50.8v123.08"/>
            </g>
            <path class="cls-2" d="M52.87,8.46c-24.72,0-44.76,20.04-44.76,44.76"/>
        </g>
    </g>
</svg>