<?xml version="1.0" encoding="UTF-8"?>
<svg id="Layer_2" xmlns="http://www.w3.org/2000/svg" viewBox="0 0 100.08 177.39">
    <defs>
        <style>
            .cls-1 {
            fill: #fff;
            stroke: #000;
            stroke-linecap: round;
            stroke-miterlimit: 10;
            stroke-width: 3px;
            }
        </style>
    </defs>
    <g id="Layer_2-2" data-name="Layer_2">
        <g>
            <g>
                <g>
                    <path class="cls-1"
                          d="M17.5,85.74v.91s-.19,19.61,0,30.23c2.7,1.7,29.4,13.06,31.96,13.06h17.45c2.94,0,14.31-24.07,16.98-25.78.04-.03.08-.05.11-.07,11.31-7.27,14.59-17.44,14.59-17.44v-.91c0-4.97-4.03-9.01-9.01-9.01h-12.49c-4.64,0-8.47-3.51-8.95-8.03-.03-.32-.05-.65-.05-.98v-9.05s-4.61-.52-4.61-.52l-4.29-.49v-.26s-1.15.13-1.15.13l-1.14-.13v.26l-8.9,1.01v9.05c0,2.01-.66,3.87-1.78,5.37-.9,1.21-2.09,2.19-3.48,2.82-1.14.52-2.41.81-3.75.81h-12.49c-4.97,0-9.01,4.03-9.01,9.01Z"/>
                    <g>
                        <path class="cls-1"
                              d="M30.73,90.62c-1.83-5.57-3.24-10.58-3.95-14-.32-1.54.84-2.99,2.41-3.03s2.94-.03,4.17,0c2.3.04,4.4,1.29,5.53,3.29"/>
                        <path class="cls-1"
                              d="M71.1,96.87l-8.88-6.62c-9.92-7.37-17.81-14.33-17.81-14.33h-6.07c0,1.98,1.15,8.04,3.54,15.57l2.74,8.59"/>
                    </g>
                    <g>
                        <polygon class="cls-1"
                                 points="38.66 23.08 38.66 55.06 48.6 61.35 59.71 62.15 66.4 55.06 77.5 25.36 60.38 11.92 45.26 14.79 38.66 23.08"/>
                        <path class="cls-1"
                              d="M35.16,20.09c-.57.92-.84,2.04-.67,3.24.28,1.94,1.79,3.56,3.71,3.95.7.14,1.4.13,2.05-.01.61-.14,1.12-.57,1.38-1.14h0c.69-1.47,1.47-2.74,2.32-3.83,8.21-10.54,22.89-4.7,21.04,1.3-1.74,5.61,5.13,9.94,7.26,11.12.35.2.51.61.39.99l-1.96,5.96,1.03,5.87-1.35-.4h0c-.22,4.41,3.31,8.04,7.68,7.99,3.93-.05,7.27-3.26,7.48-7.18.04-.72-.03-1.42-.18-2.09-.17-.74.15-1.51.76-1.96,1.54-1.13,2.54-2.96,2.54-5.02,0-2.12-1.05-3.99-2.67-5.11-.64-.45-.62-1.38.07-1.75,2.36-1.29,3.96-3.79,3.96-6.66s-1.71-5.55-4.2-6.79c-.99-.49-1.45-1.64-1.11-2.69s.45-2.3.22-3.56c-.53-2.84-2.84-5.13-5.69-5.63-2.22-.39-4.31.26-5.84,1.54-.42.35-1.04.21-1.27-.28-.94-1.98-1.67-4.73-5.95-5.95-1.75-.5-3.46.76-4.63,1.97-.64.66-1.74.57-2.25-.2-.91-1.36-2.46-2.26-4.21-2.26s-3.24.86-4.16,2.17c-.45.64-1.19,1.01-1.97.96-.28-.02-.56-.02-.85,0-2.52.19-4.67,2.12-5.1,4.61-.07.39-.1.78-.09,1.16.02.93-.8,1.56-1.72,1.45-.51-.06-1.06-.03-1.61.11-1.4.37-2.52,1.5-2.86,2.9-.08.31-.12.63-.13.93-.04,1.53-.61,3-1.42,4.3Z"/>
                        <path class="cls-1"
                              d="M70.28,36.81c-1.22,5.93-4.78,19.35-11.65,17.21,0,0-5.47-3.25-11.25-3.53,0,0-1.53.03-4.19.77-1.69.47-3.45-.53-3.89-2.23l-1.09-4.17s-7.23,3.38-3.54,11.58c-2.57,2.73,1.93,6.91,1.93,6.91,0,0-2.09,9.97,7.07,7.07,4.02,6.75,9.16.53,9.16.53,0,0,7.56,5.9,12.22-2.3,8.04,1.77,5.72-7.99,5.72-7.99,0,0,6.6-2.78,1.4-9.86,5.41-4.18,1.99-6.11,1.99-6.11,0,0,3.33-5.77-.39-9.05-1.23-1.08-3.17-.45-3.5,1.16Z"/>
                    </g>
                </g>
                <g>
                    <polyline class="cls-1"
                              points="56.18 168.26 98.58 153.11 98.58 86.65 79.96 99.54 72.67 114.08 56.18 124.51"/>
                    <path class="cls-1"
                          d="M56.18,124.51v43.04c0,.35-.35.59-.67.48l-41.4-14.79c-.2-.07-.33-.26-.33-.48v-44.55l3.64-16.39,16.2,25.25,22.56,7.44Z"/>
                </g>
                <line class="cls-1" x1="74.58" y1="154.41" x2="65.95" y2="157.85"/>
                <polyline class="cls-1" points="92.66 139.03 92.66 147.21 82.18 151.39"/>
                <line class="cls-1" x1="92.66" y1="97.06" x2="92.66" y2="117.97"/>
                <line class="cls-1" x1="18.97" y1="149.63" x2="36.43" y2="155.9"/>
                <line class="cls-1" x1="19.13" y1="136.75" x2="27.7" y2="139.83"/>
            </g>
            <path class="cls-1"
                  d="M43.38,158.26l-5.48,5.59c-1.86,1.9-.36,5.09,2.29,4.87l6.28-.53c1.66-.14,2.85-1.66,2.59-3.31l-.8-5.06c-.37-2.33-3.23-3.24-4.88-1.56Z"/>
            <path class="cls-1"
                  d="M23.34,175.89l5.14-.05c1.75-.02,2.53-2.2,1.19-3.32l-3.16-2.67c-.84-.71-2.09-.55-2.74.33l-1.98,2.72c-.91,1.25,0,3.01,1.54,2.99Z"/>
            <path class="cls-1"
                  d="M3.97,152.97l-2.05,2.72c-1.02,1.34-.09,3.27,1.6,3.32l16.95.45c1.48.04,2.53-1.45,1.98-2.83l-2.34-5.9c-.5-1.26-2.04-1.71-3.14-.92l-2.57,1.85c-.46.34-1.05.46-1.61.35l-4.2-.82c-1.76-.34-3.55.35-4.63,1.77Z"/>
        </g>
    </g>
</svg>